<?xml version="1.0" encoding="UTF-8" standalone="no"?>
<!DOCTYPE svg PUBLIC "-//W3C//DTD SVG 1.1//EN" "http://www.w3.org/Graphics/SVG/1.1/DTD/svg11.dtd">
<svg width="100%" height="100%" viewBox="0 0 2720 2720" version="1.1" 
   xmlns="http://www.w3.org/2000/svg" 
   xmlns:xlink="http://www.w3.org/1999/xlink" xml:space="preserve" style="fill-rule:evenodd;clip-rule:evenodd;stroke-linejoin:round;stroke-miterlimit:1.41421;">
   <g id="Tavola-da-disegno1" transform="matrix(1.43921,0,0,1.43921,0,0)">
      <rect x="0" y="0" width="1889.76" height="1889.76" style="fill:none;"/>
      <g transform="matrix(1,0,0,1,91.8506,-146.919)">
         <g transform="matrix(0.694826,0,0,0.694826,0,0)">
            <path d="M1039.19,1216.4C1155.05,1175.67 1254.89,1159 1326.17,1159C1327.05,1159 1316.17,1176 1316.17,1176C1316.17,1176 1356.43,1176.19 1460.48,1200C1460.75,1200.06 1448.85,1211.63 1442.85,1217.45C1458.79,1217.99 1474.72,1218.59 1490.64,1219.25C1590.42,1223.3 1670.57,1290.21 1676.56,1374.46C1687.22,1522.28 1687.14,1671.03 1676.19,1820.72C1670.19,1903.73 1592.13,1970.06 1493.91,1975.59C1310.61,1986.06 1133.07,1986.34 961.27,1976.42C863.18,1970.8 785.253,1904.56 779.201,1821.65C768.05,1670.57 768.293,1521.48 778.947,1374.21C784.964,1289.98 865.085,1223.1 964.84,1219.03C989.648,1218 1014.43,1217.13 1039.19,1216.4Z" style="fill:rgb(102,35,8);"/>
         </g>
         <g transform="matrix(0.347413,0.601737,-0.601737,0.347413,1132.85,-195.027)">
            <path d="M1143.6,1463C1216.25,1463 1422.06,1612.54 1444.51,1681.63C1466.96,1750.72 1388.35,1992.67 1329.57,2035.38C1270.8,2078.08 1016.4,2078.08 957.622,2035.38C898.848,1992.67 820.232,1750.72 842.682,1681.63C865.132,1612.54 1070.95,1463 1143.6,1463Z" style="fill:rgb(102,35,8);"/>
         </g>
         <g transform="matrix(-0.347413,0.601737,0.601737,0.347413,573.214,-195.027)">
            <path d="M1143.6,1463C1216.25,1463 1422.06,1612.54 1444.51,1681.63C1466.96,1750.72 1388.35,1992.67 1329.57,2035.38C1270.8,2078.08 1016.4,2078.08 957.622,2035.38C898.848,1992.67 820.232,1750.72 842.682,1681.63C865.132,1612.54 1070.95,1463 1143.6,1463Z" style="fill:rgb(102,35,8);"/>
         </g>
         <g transform="matrix(0.194521,0.33692,-0.33692,0.194521,838.155,377.704)">
            <path d="M1143.6,1463C1216.25,1463 1422.06,1612.54 1444.51,1681.63C1466.96,1750.72 1388.35,1992.67 1329.57,2035.38C1270.8,2078.08 1016.4,2078.08 957.622,2035.38C898.848,1992.67 820.232,1750.72 842.682,1681.63C865.132,1612.54 1070.95,1463 1143.6,1463Z" style="fill:rgb(218,205,179);"/>
         </g>
         <g transform="matrix(1,0,0,1,13.8965,0)">
            <path d="M325.491,1106.74C348.048,1077.69 380.62,1047.31 397.98,1043.62C425.625,1037.75 516.042,1078 530.174,1102.48C538.916,1117.62 538.291,1161.06 532.052,1196.94C503.439,1215.85 420.701,1232.08 397.13,1221.59C373.99,1211.29 331.843,1141.38 325.491,1106.74Z" style="fill:rgb(232,223,206);"/>
         </g>
         <g transform="matrix(-0.194521,0.33692,0.33692,0.194521,870.353,377.704)">
            <path d="M1143.6,1463C1216.25,1463 1422.06,1612.54 1444.51,1681.63C1466.96,1750.72 1388.35,1992.67 1329.57,2035.38C1270.8,2078.08 1016.4,2078.08 957.622,2035.38C898.848,1992.67 820.232,1750.72 842.682,1681.63C865.132,1612.54 1070.95,1463 1143.6,1463Z" style="fill:rgb(218,205,179);"/>
         </g>
         <g transform="matrix(1,0,0,1,-13.8965,0)">
            <path d="M1149.64,1065.21C1182.52,1046.77 1227.75,1030.73 1245.91,1034.59C1273.56,1040.47 1339.78,1114.02 1342.74,1142.13C1344.42,1158.13 1329.1,1192.8 1310.83,1221.79C1284.27,1232.81 1188.62,1212.37 1169.84,1191.5C1154.06,1173.99 1144.25,1102.62 1149.64,1065.21Z" style="fill:rgb(232,223,206);"/>
         </g>
         <g transform="matrix(0.694826,0,0,0.694826,-605.12,-536.406)">
            <path d="M2096.15,2117.97C2158.56,2117.98 2220.76,2119.22 2282.78,2121.63C2352.85,2124.3 2409.14,2168.51 2413.34,2224.18C2415.04,2246.3 2416.35,2268.46 2417.27,2290.65C2417.48,2295.97 2415.52,2301.15 2411.83,2304.99C2408.14,2308.83 2403.05,2311 2397.72,2311C2397.72,2311 2397.72,2311 2397.72,2311C2386.56,2311 2373.94,2320.64 2377.51,2331.21C2392.71,2376.16 2392.79,2489.36 2377.51,2549.2C2370.67,2575.99 2360.34,2601.58 2334.43,2611.24C2319.3,2616.89 2302.64,2620.42 2285.07,2621.36C2247.83,2623.36 2210.92,2624.79 2174.36,2625.67C2161.24,2625.97 2148.56,2620.97 2139.18,2611.8C2129.8,2602.63 2124.52,2590.07 2124.52,2576.95C2124.51,2575.1 2124.51,2573.28 2124.51,2571.5C2124.51,2564.74 2121.83,2558.25 2117.05,2553.47C2112.26,2548.69 2105.78,2546 2099.01,2546C2099.01,2546 2099.01,2546 2099.01,2546C2084.93,2546 2073.51,2557.42 2073.51,2571.5C2073.51,2573.37 2073.51,2575.29 2073.51,2577.24C2073.51,2590.34 2068.24,2602.9 2058.89,2612.08C2049.54,2621.26 2036.89,2626.29 2023.79,2626.05C1985.81,2625.3 1948.22,2623.92 1911.01,2621.9C1894.7,2621.02 1879.17,2617.89 1864.93,2612.91C1838.34,2603.64 1825.8,2578.06 1820.52,2550.39C1808.99,2490.03 1809.86,2373.74 1820.51,2329.07C1822.83,2319.36 1812.42,2311 1802.44,2311C1802.44,2311 1802.44,2311 1802.44,2311C1796.33,2311 1790.48,2308.51 1786.25,2304.09C1782.02,2299.68 1779.78,2293.73 1780.04,2287.62C1780.97,2266.36 1782.25,2245.16 1783.87,2224.01C1788.1,2168.36 1844.37,2124.17 1914.42,2121.48C1975.19,2119.12 2035.77,2117.97 2096.15,2117.97Z" style="fill:rgb(232,223,206);"/>
         </g>
         <g transform="matrix(1.2801,0,0,1.2801,-321.467,-297.969)">
            <g transform="matrix(0.66071,0,0,0.66071,442.191,350.83)">
               <g transform="matrix(0.694826,0,0,0.694826,0,0)">
                  <circle cx="1127.42" cy="1520.58" r="32.421"/>
               </g>
               <g transform="matrix(0.116172,0,0,0.116172,652.387,879.89)">
                  <circle cx="1127.42" cy="1520.58" r="32.421" style="fill:white;"/>
               </g>
            </g>
            <g transform="matrix(0.66071,0,0,0.66071,357.738,350.83)">
               <g transform="matrix(0.694826,0,0,0.694826,0,0)">
                  <circle cx="1127.42" cy="1520.58" r="32.421"/>
               </g>
               <g transform="matrix(0.116172,0,0,0.116172,652.387,879.89)">
                  <circle cx="1127.42" cy="1520.58" r="32.421" style="fill:white;"/>
               </g>
            </g>
         </g>
      </g>
   </g>
</svg>
